PathFileType	4	(X/Y/Z)	Patient4_TMGait_0pt5_01_right_06.trc.trc
DataRate	CameraRate	NumFrames	NumMarkers	Units	OrigDataRate	OrigDataStartFrame	OrigNumFrames
71.428571428571	71.428571428571	6	33	mm	71.428571428571	36	       141
Frame#	Time	L.ASIS			Sacral			L.Shoulder			Chest			R.Shoulder			Neck			R.ASIS			R.Thigh.Superior			R.Thigh.Lateral			R.Thigh.Inferior			R.Patella			L.Thigh.Superior			L.Thigh.Lateral			L.Thigh.Inferior			L.Patella			L.Shank.Superior			L.Shank.Lateral			L.Shank.Inferior			R.Shank.Superior			R.Shank.Lateral			R.Shank.Inferior			R.Heel			R.Midfoot.Superior			R.Midfoot.Lateral			R.Toe			L.Heel			L.Midfoot.Lateral			L.Midfoot.Superior			L.Toe			L.Elbow			L.Wrist			R.Elbow			R.Wrist			
		X1	Y1	Z1	X2	Y2	Z2	X3	Y3	Z3	X4	Y4	Z4	X5	Y5	Z5	X6	Y6	Z6	X7	Y7	Z7	X8	Y8	Z8	X9	Y9	Z9	X10	Y10	Z10	X11	Y11	Z11	X12	Y12	Z12	X13	Y13	Z13	X14	Y14	Z14	X15	Y15	Z15	X16	Y16	Z16	X17	Y17	Z17	X18	Y18	Z18	X19	Y19	Z19	X20	Y20	Z20	X21	Y21	Z21	X22	Y22	Z22	X23	Y23	Z23	X24	Y24	Z24	X25	Y25	Z25	X26	Y26	Z26	X27	Y27	Z27	X28	Y28	Z28	X29	Y29	Z29	X30	Y30	Z30	X31	Y31	Z31	X32	Y32	Z32	X33	Y33	Z33	

36	7.790000000000	744.120785295646	959.837162698643	358.902567080951	526.038687638107	996.799632281157	510.920036746372	696.025195593085	1438.911004532886	354.607025297753	790.175311719125	1362.317513824818	518.159009652642	693.448673367418	1425.807532543215	690.808394405533	687.247365239661	1492.841561215137	508.365300652564	754.363341998878	937.812891127993	632.870252060391	817.487980503824	747.453047390343	595.960056641254	749.901588128770	631.516538141188	654.091620043164	831.264532177149	587.843287957309	571.418493500952	843.211399811896	496.434962139553	576.126119951249	774.832812864129	734.928050507969	382.336032412723	678.423207596782	626.390787510134	318.665342626874	755.174974516342	537.533007373105	378.661219990077	744.706753534169	454.607699371053	378.497422376461	682.125215030082	395.273190773259	372.299598136925	550.083904787121	336.340523255882	318.169494741852	544.837270021670	210.730608181474	381.043804090177	815.965878431868	406.404435882035	582.003666827019	750.537905926946	300.614315453339	645.261670336379	790.592006100995	207.205150630130	579.636984850310	656.813547961113	43.195068460036	555.128828867573	829.086776463959	97.467953565587	583.836039786353	743.195277230065	36.780252208032	626.247270202320	950.571612405808	44.130261567985	606.405484890702	360.438478266060	117.799309777903	410.693625645772	430.649496940885	84.412278788000	335.660196492343	528.923919069063	113.749401795843	362.539444949550	628.343252316199	33.221613472185	343.716166372535	726.036601882637	1094.319037369742	214.586373183846	957.983483767005	985.622353204087	254.645647061749	637.175274306762	1079.685226454157	793.013934342055	758.351189332710	848.760703671812	802.438572801292	
37	7.804000000000	743.204543359857	960.917503228221	361.517678880836	526.041782932733	997.862515045219	514.845844825696	694.357308688341	1439.935250481015	357.339362585354	790.017874856300	1363.478561271099	520.109940881629	694.800660596191	1427.009655784962	693.644685629980	686.682242339230	1493.870736987886	511.061444708211	755.057489029975	938.774599302873	635.334956003575	815.911377565816	746.852600828142	599.388350723228	746.521471807046	631.639212639286	656.908353719735	827.627395364740	587.180934135106	574.447944365372	838.269027824092	495.928179932959	578.722780415602	778.785964143866	737.841854321619	384.495511067207	686.094742518905	627.250940225182	320.021055241143	765.837439590767	539.767358566578	379.151369799186	756.346146871445	455.556866351266	377.793045939482	691.586821478959	396.464052329600	372.178725704267	556.970793244903	342.466732987811	319.049743978107	548.266236926072	216.681111492124	381.149995731734	810.757841790475	406.148821697110	584.125619146664	744.711519837632	300.421199275078	646.709075707039	784.453842891873	207.127752929792	580.780573613229	649.947279309720	43.333213754033	555.370241464877	822.410086433261	97.471601225679	584.277028755347	736.335577621127	36.761044357289	626.451781264563	943.766676504635	43.656122820191	606.649933793726	360.479849501423	132.238937518185	411.691854117709	428.535683491977	95.010630699591	336.328010816212	528.587735668262	118.990406886637	362.546861484446	622.759594734602	32.733489047753	343.551393739735	721.768329593592	1094.397061679974	218.648618968270	950.708673765039	977.731584533658	256.818965581080	645.751522234235	1080.448476449334	798.685669294225	776.601713126971	855.062863912042	807.217801544755	
38	7.818000000000	742.120865566897	961.933918179684	364.022041081483	525.881687735285	998.864888879355	518.677789894578	692.441731347871	1440.857168840795	359.933031946924	789.711561417244	1364.570369237079	521.873059741284	696.088119540967	1428.150101976364	696.283860528634	685.974989100021	1494.846561064206	513.611346523092	755.556990987422	939.672276702008	637.704051258548	814.063195703684	746.260770285057	602.788034870927	742.884907891785	631.792242485702	659.706668658851	823.787641936315	586.546843014421	577.546459404524	833.091563738740	495.466367851261	581.465435295074	782.536491258072	740.956729403105	386.514159716369	693.606640830836	628.454704149507	321.118612534817	776.228335297072	542.474278527033	379.409818219619	767.762391335769	457.060284924426	377.006713370096	701.141667196781	398.079665204926	371.908594613351	564.192587247163	348.728096932853	319.933033400075	552.344020506772	222.875486513376	381.376127053369	805.354617981918	405.927005475483	586.360057765149	738.619025389866	300.243165109169	648.182533393021	778.204333969201	207.074669983414	582.030050109105	642.976693973112	43.490089318869	555.632575045967	815.671961339872	97.438187428306	584.762345667195	729.372546534886	36.729061728672	626.677128058164	936.859533083438	43.115456117217	606.913116484499	361.695465204650	146.400622992516	413.121603760778	427.476336111916	105.862786699970	337.221516368307	529.087865881575	124.720828737600	362.672306960064	618.220073278612	32.584656135608	343.023508600019	717.067389279671	1094.323559270874	222.659819145363	942.420476749243	969.130690916031	258.433112045456	654.337913354334	1081.420833958670	804.328780775802	794.555102403376	861.886219763049	811.904606107175	
39	7.832000000000	740.875229561027	962.906950970000	366.384271842391	525.569910579612	999.801731960152	522.390239987340	690.306746584440	1441.701730039060	362.406336390066	789.253513577591	1365.598175892027	523.469831103310	697.277614039127	1429.214512366706	698.729148287906	685.150783495017	1495.779986899490	516.037178295466	755.871947834217	940.523563002368	639.956430991781	811.979946120032	745.713001176345	606.048535876196	739.065512884098	631.992824113745	662.409143442493	819.775862781814	585.959375843725	580.595513014062	827.727985299106	495.060702681041	584.229630606207	785.979502243387	744.252559933333	388.352282317875	700.744308183373	630.021058440118	321.965052474449	786.115294405435	545.643707129006	379.404876372244	778.754452758211	459.124559393615	376.097379810419	710.613605950762	400.110684520368	371.459945192704	571.588310558568	354.928723720195	320.812620873984	557.086807648961	229.051125531959	381.676740581749	799.795164673864	405.750907745917	588.614017139330	732.323191433788	300.106635807723	649.636540204926	771.873460620154	207.057165587499	583.330443564042	635.935095557937	43.670083859276	555.910820836443	808.895407697876	97.390058625258	585.272847963916	722.341557717746	36.695679425589	626.913715899529	929.881135686698	42.553078520475	607.183902280467	364.193640562375	159.587968420637	414.981206612043	427.672565450560	116.426098728517	338.318762446663	530.601460563860	130.672402116420	362.849692307465	615.155003239962	32.866168866695	342.025971902528	711.961412908392	1094.136259598832	226.632576513538	933.027926282391	959.880131998743	259.475025076056	662.902860004501	1082.568631396152	809.853126789977	812.112170247986	869.150628932885	816.471841324582	
40	7.846000000000	739.473837334320	963.871586226622	368.581510651900	525.117652168564	1000.684263164484	525.967813784210	687.988069225976	1442.504463253861	364.781052226742	788.645822646750	1366.579081259981	524.926922974144	698.343617644270	1430.205074478333	700.998561275719	684.233307284726	1496.688644997792	518.362958886945	756.012952445147	941.348451021169	642.070037350575	809.691669828480	745.236288052521	609.073864364546	735.113302915945	632.251137636373	664.946618202816	815.605188883371	585.431973949422	583.489939693736	822.209319362629	494.721083419457	586.895292706365	789.027650714426	747.705566526240	389.978157816509	707.319485631325	631.947941969916	322.572070020317	795.304285224950	549.242584243439	379.105610401869	789.153669182778	461.736721419357	375.014274191659	719.861671315051	402.527103660833	370.799123474057	579.034839247045	360.839797860570	321.659735804799	562.552434971610	234.910439862813	381.981970810780	794.102725533690	405.632548988227	590.799555282837	725.874311739912	300.036176899059	651.030576276612	765.479062883931	207.087336503257	584.629363025007	628.852996403979	43.877865934292	556.199642021558	802.099715199348	97.347960250021	585.791248011627	715.275065060603	36.670359943445	627.151896488317	922.859848205292	42.010167917064	607.451737331821	368.091086426924	171.093532747006	417.208286996005	429.347661221000	126.105531833803	339.558047514090	533.347932400944	136.506893085270	362.991985033061	614.029258408469	33.629313567050	340.482455528411	706.481993162537	1093.891618902368	230.576030333456	922.439766847977	950.078644077321	259.954376993223	671.415327610207	1083.863514647961	815.168170133341	829.203417076693	876.796335140460	820.882579013565	
41	7.860000000000	737.923281987609	964.866610118806	370.599833782941	524.532893667757	1001.534735167739	529.402021223115	685.526638666710	1443.301938765794	367.079514572135	787.896604753530	1367.533488488560	526.273015034173	699.272539595241	1431.133177502558	703.121177860326	683.242517762107	1497.589862728854	520.612558857791	755.988702516410	942.161067322192	644.023205050168	807.220547894208	744.846588404369	611.786422103224	731.063211506627	632.570634999336	667.266946912565	811.279601000776	584.972470485761	586.146622179460	816.556109943266	494.453950152846	589.364590869904	791.618285249526	751.285376261765	391.368252589598	713.183627117486	634.208009959784	322.957129902803	803.647525091985	553.212475048758	378.491833489423	798.826564054403	464.862198390033	373.716379170595	728.783743301942	405.276299801161	369.901368237526	586.456256601419	366.211691434703	322.426091819316	568.831590991235	240.144991630734	382.207666085491	788.292007958352	405.580738444360	592.845990367406	719.311042323304	300.050359217489	652.334686964728	759.029614684402	207.174752989305	585.883876841138	621.754346748482	44.117741269646	556.494220901428	795.298714106195	97.327917689672	586.303516028850	708.198729093024	36.659506559917	627.383347589246	915.818374966780	41.518135644330	607.707408751867	373.506707233624	180.264973958663	419.675640059374	432.732722226331	134.311116493466	340.838554827247	537.567684649552	141.849693265029	363.002728824001	615.299884127712	34.859007530467	338.361214833424	700.664121445311	1093.654525743861	234.490098178243	910.576186223892	939.865291653110	259.901602694283	679.841510115447	1085.279222308884	820.190662863352	845.786487769857	884.783451227325	825.089101072722	
